<svg xmlns="http://www.w3.org/2000/svg" version="1.1" xmlns:xlink="http://www.w3.org/1999/xlink" xmlns:svgjs="http://svgjs.dev/svgjs"  width="31.88" height="32" viewBox="0 0 1500 340"><g transform="matrix(1,0,0,1,-0.9090909090909918,-1.8421384378614505)"><svg viewBox="0 0 396 90" data-background-color="#ffffff" preserveAspectRatio="xMidYMid meet" height="340" width="1500" xmlns="http://www.w3.org/2000/svg" xmlns:xlink="http://www.w3.org/1999/xlink"><g id="tight-bounds" transform="matrix(1,0,0,1,0.2400000000000091,0.4876248806103831)"><svg viewBox="0 0 395.52 89.0247502387792" height="89.0247502387792" width="395.52"><g><svg viewBox="0 0 526.8434286600095 118.58339565988936" height="89.0247502387792" width="395.52"><g transform="matrix(1,0,0,1,131.3234286600095,32.30879190109093)"><svg viewBox="0 0 395.52 53.965811857707514" height="53.965811857707514" width="395.52"><g id="textblocktransform"><svg viewBox="0 0 395.52 53.965811857707514" height="53.965811857707514" width="395.52" id="textblock"><g><svg viewBox="0 0 395.52 53.965811857707514" height="53.965811857707514" width="395.52"><g transform="matrix(1,0,0,1,0,0)"><svg width="395.52" viewBox="1.9 -36.3 316.22 43.15" height="53.965811857707514" data-palette-color="#000000"><g class="wordmark-text-0" data-fill-palette-color="primary" id="text-0"><path d="M12.65 0.2L12.65 0.2Q11.1 0.2 9.93-0.6 8.75-1.4 8.8-3L8.8-3Q8.9-5.8 9.22-9.2 9.55-12.6 10-16.13 10.45-19.65 10.93-22.9 11.4-26.15 11.8-28.7L11.8-28.7Q10.9-28.8 10.05-28.85 9.2-28.9 8.5-28.9L8.5-28.9Q6.4-28.9 4.73-28.5 3.05-28.1 1.9-27.1L1.9-27.1Q1.9-30.25 2.43-32.23 2.95-34.2 4.38-35.1 5.8-36 8.55-36L8.55-36Q10.55-36 13.03-35.68 15.5-35.35 18.05-35 20.6-34.65 22.8-34.65L22.8-34.65Q24.6-34.65 26.03-35 27.45-35.35 28.2-36.25L28.2-36.25Q29.3-35.9 29.9-34.73 30.5-33.55 30.5-32.15L30.5-32.15Q30.5-30.9 29.95-29.73 29.4-28.55 28.2-27.78 27-27 24.95-27L24.95-27Q24-27 22.63-27.18 21.25-27.35 19.7-27.55L19.7-27.55Q19.15-24.55 18.57-20.38 18-16.2 17.63-11.4 17.25-6.6 17.15-1.65L17.15-1.65Q16.25-0.7 15.03-0.25 13.8 0.2 12.65 0.2ZM36.9 0.2L36.9 0.2Q35.1 0.2 33.7-1.28 32.3-2.75 32.3-5.45L32.3-5.45Q32.3-6.75 32.6-8.4 32.9-10.05 33.3-11.78 33.7-13.5 34-15.03 34.3-16.55 34.3-17.55L34.3-17.55Q34.3-18.6 33.92-19.23 33.55-19.85 32.95-19.85L32.95-19.85Q32-19.85 31-18.55L31-18.55 30.7-18.75Q30.65-19.55 31.05-20.65 31.45-21.75 32.3-22.78 33.15-23.8 34.47-24.5 35.8-25.2 37.6-25.2L37.6-25.2Q40.25-25.2 41.45-23.68 42.65-22.15 42.65-20L42.65-20Q42.65-19.65 42.62-19.28 42.6-18.9 42.55-18.55L42.55-18.55Q44.35-21.8 46.32-23.53 48.3-25.25 50-25.25L50-25.25Q51.6-25.25 52.35-24 53.1-22.75 53.1-21L53.1-21Q53.1-19.4 52.47-17.75 51.85-16.1 50.62-15.03 49.4-13.95 47.65-14L47.65-14 47.45-14.1Q47.4-15.4 46.6-16.15 45.8-16.9 44.8-16.9L44.8-16.9Q43.45-16.9 42.27-15.55 41.1-14.2 41.1-11.65L41.1-11.65Q41.1-10.1 41.45-8.3 41.8-6.5 41.8-5.25L41.8-5.25Q41.8-3.75 41.1-2.5 40.4-1.25 39.3-0.53 38.2 0.2 36.9 0.2ZM72.8 0.25L72.8 0.25Q71.05 0.25 69.75-0.9 68.44-2.05 68.44-4.65L68.44-4.65Q68.44-4.9 68.44-5.15 68.44-5.4 68.5-5.65L68.5-5.65Q67-2.65 65.12-1.23 63.24 0.2 61.34 0.2L61.34 0.2Q59.59 0.2 58.05-1.03 56.49-2.25 55.55-4.65 54.59-7.05 54.59-10.45L54.59-10.45Q54.59-13.95 55.57-16.7 56.55-19.45 58.14-21.35 59.74-23.25 61.64-24.23 63.55-25.2 65.34-25.2L65.34-25.2Q67.34-25.2 68.94-23.98 70.55-22.75 71.14-20.1L71.14-20.1Q71.3-20.95 71.37-21.65 71.44-22.35 71.44-22.6L71.44-22.6Q71.5-23.95 72.82-24.6 74.14-25.25 75.75-25.25L75.75-25.25Q77.14-25.25 78.39-24.7 79.64-24.15 80.09-22.85L80.09-22.85 80.19-22.55Q79.59-21.2 79-19.3 78.39-17.4 77.89-15.33 77.39-13.25 77.09-11.28 76.8-9.3 76.8-7.8L76.8-7.8Q76.8-6.15 77.14-5.53 77.5-4.9 78-4.9L78-4.9Q78.84-4.9 79.55-6.1L79.55-6.1 79.94-5.9Q79.94-4.2 78.84-2.8 77.75-1.4 76.09-0.58 74.44 0.25 72.8 0.25ZM64.64-6.1L64.64-6.1Q65.94-6.1 67.52-8.43 69.09-10.75 70.25-15.1L70.25-15.1Q70.34-15.55 70.44-15.98 70.55-16.4 70.59-16.8L70.59-16.8Q69.8-18.65 68.92-19.43 68.05-20.2 67.19-20.2L67.19-20.2Q65.94-20.2 64.87-18.88 63.8-17.55 63.12-15.55 62.45-13.55 62.45-11.55L62.45-11.55Q62.45-8.8 63.07-7.45 63.7-6.1 64.64-6.1ZM90.24 0.2L90.24 0.2Q87.34 0.2 85.64-1.33 83.94-2.85 83.94-6.05L83.94-6.05Q83.94-7.9 84.42-10 84.89-12.1 85.34-13.75L85.34-13.75Q85.79-15.35 86.07-16.55 86.34-17.75 86.34-18.4L86.34-18.4Q86.34-19.2 85.99-19.55 85.64-19.9 85.14-19.9L85.14-19.9Q83.94-19.9 83.14-18.75L83.14-18.75 82.94-18.95Q82.99-20.65 84.04-22.08 85.09-23.5 86.74-24.35 88.39-25.2 90.09-25.2L90.09-25.2Q91.99-25.2 93.34-24.08 94.69-22.95 94.59-20.55L94.59-20.55Q94.54-19.5 94.22-17.9 93.89-16.3 93.34-14.1L93.34-14.1Q92.99-12.7 92.62-10.93 92.24-9.15 92.24-7.7L92.24-7.7Q92.24-6.6 92.59-5.95 92.94-5.3 93.74-5.3L93.74-5.3Q94.79-5.3 96.07-6.48 97.34-7.65 98.29-10.33 99.24-13 99.39-17.45L99.39-17.45Q99.54-20.85 98.94-22.4L98.94-22.4 98.94-22.65Q99.39-23.35 100.32-24 101.24-24.65 102.39-25.08 103.54-25.5 104.54-25.5L104.54-25.5Q106.14-25.5 107.27-23.95 108.39-22.4 108.24-18.55L108.24-18.55Q108.14-14.85 106.92-11.85 105.69-8.85 103.74-6.6 101.79-4.35 99.47-2.85 97.14-1.35 94.74-0.58 92.34 0.2 90.24 0.2ZM121.29 0.35L121.29 0.35Q117.64 0.35 115.24-1.13 112.84-2.6 111.64-5.03 110.44-7.45 110.44-10.25L110.44-10.25Q110.44-12.9 111.47-15.58 112.49-18.25 114.47-20.45 116.44-22.65 119.27-24 122.09-25.35 125.64-25.35L125.64-25.35Q130.04-25.35 132.06-23.38 134.09-21.4 134.09-18.6L134.09-18.6Q134.09-16.2 132.81-14.18 131.54-12.15 129.44-10.93 127.34-9.7 124.84-9.7L124.84-9.7Q123.54-9.7 122.19-10.1 120.84-10.5 119.54-11.35L119.54-11.35Q119.79-8.25 121.34-6.85 122.89-5.45 125.04-5.45L125.04-5.45Q126.54-5.45 128.04-6.03 129.54-6.6 130.81-7.53 132.09-8.45 132.79-9.5L132.79-9.5 133.14-9.25Q133.14-6.65 132.06-4.83 130.99-3 129.24-1.85 127.49-0.7 125.42-0.18 123.34 0.35 121.29 0.35ZM122.44-13.15L122.44-13.15Q124.04-13.15 125.04-14.08 126.04-15 126.54-16.25 127.04-17.5 127.04-18.45L127.04-18.45Q127.04-19.6 126.39-20.38 125.74-21.15 124.59-21.15L124.59-21.15Q123.69-21.15 122.62-20.5 121.54-19.85 120.69-18.28 119.84-16.7 119.59-13.9L119.59-13.9Q121.19-13.15 122.44-13.15ZM142.29 0.2L142.29 0.2Q140.94 0.2 139.66-0.48 138.39-1.15 137.59-2.65 136.79-4.15 136.79-6.5L136.79-6.5Q136.79-8.6 137.36-11.43 137.94-14.25 138.66-17.3 139.39-20.35 139.94-23.25 140.49-26.15 140.44-28.4L140.44-28.4Q140.44-30.55 139.94-31.45L139.94-31.45 139.89-31.6Q140.44-33.2 141.84-34.1 143.24-35 144.79-35L144.79-35Q146.54-35 147.91-33.68 149.29-32.35 149.29-29.25L149.29-29.25Q149.29-27.6 148.89-25.33 148.49-23.05 147.94-20.48 147.39-17.9 146.81-15.4 146.24-12.9 145.84-10.8 145.44-8.7 145.44-7.35L145.44-7.35Q145.44-5.95 145.84-5.43 146.24-4.9 146.74-4.9L146.74-4.9Q147.29-4.9 147.79-5.33 148.29-5.75 148.44-6.1L148.44-6.1 148.84-6Q148.79-4.2 147.81-2.8 146.84-1.4 145.36-0.6 143.89 0.2 142.29 0.2ZM180.34 6.85L147.89 6.85Q147.74 6.15 147.74 5.6L147.74 5.6Q147.74 3.9 148.99 2.55L148.99 2.55 181.44 2.55Q181.74 3.2 181.74 3.9L181.74 3.9Q181.74 5.4 180.34 6.85L180.34 6.85ZM190.88 0.3L190.88 0.3Q187.53 0.3 185.36-0.85 183.18-2 182.13-3.8 181.08-5.6 181.08-7.5L181.08-7.5Q181.08-9.35 181.98-11.03 182.88-12.7 184.56-13.8 186.23-14.9 188.53-14.9L188.53-14.9Q188.48-14.45 188.48-14.08 188.48-13.7 188.48-13.7L188.48-13.7Q188.48-10.35 189.13-8.43 189.78-6.5 190.78-5.68 191.78-4.85 192.83-4.85L192.83-4.85Q194.43-4.85 195.68-6.13 196.93-7.4 196.93-9.1L196.93-9.1Q196.93-11 195.31-12.45 193.68-13.9 191.18-15.65L191.18-15.65Q189.78-16.7 188.21-18.03 186.63-19.35 185.53-21.18 184.43-23 184.43-25.5L184.43-25.5Q184.43-28.1 185.66-30.1 186.88-32.1 188.91-33.48 190.93-34.85 193.36-35.58 195.78-36.3 198.18-36.3L198.18-36.3Q201.13-36.3 203.03-35.35 204.93-34.4 205.88-32.9 206.83-31.4 206.83-29.8L206.83-29.8Q206.83-28.3 206.01-26.93 205.18-25.55 203.58-24.7 201.98-23.85 199.63-23.85L199.63-23.85Q199.78-24.55 199.83-25.13 199.88-25.7 199.88-26.15L199.88-26.15Q199.88-28.65 198.81-29.73 197.73-30.8 196.43-30.8L196.43-30.8Q195.18-30.8 194.03-29.88 192.88-28.95 192.88-26.9L192.88-26.9Q192.88-25.15 193.81-23.9 194.73-22.65 196.21-21.7 197.68-20.75 199.33-19.85L199.33-19.85Q201.03-18.95 202.61-17.88 204.18-16.8 205.23-15.35 206.28-13.9 206.28-11.7L206.28-11.7Q206.28-9.4 205.03-7.23 203.78-5.05 201.63-3.38 199.48-1.7 196.71-0.7 193.93 0.3 190.88 0.3ZM212.53 0.2L212.53 0.2Q210.98 0.2 209.78-0.55 208.58-1.3 208.58-3.05L208.58-3.05Q208.58-5.8 209.76-8.65 210.93-11.5 212.66-14.28 214.38-17.05 216.11-19.7 217.83-22.35 219.01-24.75 220.18-27.15 220.18-29.2L220.18-29.2Q220.18-30.85 219.38-30.85L219.38-30.85Q218.83-30.85 218.13-29.98 217.43-29.1 217.13-27.4L217.13-27.4 216.58-27.5Q216.58-30.35 217.93-32.33 219.28-34.3 221.38-35.3 223.48-36.3 225.68-36.3L225.68-36.3Q228.23-36.3 230.46-34.85 232.68-33.4 233.53-30.25L233.53-30.25Q233.88-29 234.06-27.45 234.23-25.9 234.28-24.78 234.33-23.65 234.33-23.65L234.33-23.65Q234.43-19.6 234.51-16.8 234.58-14 234.78-12.1 234.98-10.2 235.33-8.9L235.33-8.9Q235.68-7.65 236.26-6.88 236.83-6.1 237.73-6.1L237.73-6.1Q238.58-6.1 239.21-6.6 239.83-7.1 240.03-7.55L240.03-7.55 240.38-7.3Q240.38-5 239.48-3.3 238.58-1.6 237.13-0.7 235.68 0.2 234.08 0.2L234.08 0.2Q232.53 0.2 231.06-0.73 229.58-1.65 228.48-3.6 227.38-5.55 227.03-8.65L227.03-8.65Q225.48-8.75 224.01-8.83 222.53-8.9 221.33-8.9L221.33-8.9Q220.53-8.9 219.81-8.88 219.08-8.85 218.38-8.8L218.38-8.8Q217.93-7.25 217.66-5.68 217.38-4.1 217.38-2.6L217.38-2.6Q217.38-1.45 215.88-0.63 214.38 0.2 212.53 0.2ZM220.03-13.45L220.03-13.45Q221.28-13.8 222.68-13.93 224.08-14.05 225.68-14.05L225.68-14.05 226.78-14.05Q226.68-17.75 226.51-21.65 226.33-25.55 225.23-28.9L225.23-28.9Q224.83-25.3 223.23-21.35 221.63-17.4 220.03-13.45ZM254.03 0.2L254.03 0.2Q252.48 0.2 251.3-0.6 250.13-1.4 250.18-3L250.18-3Q250.28-5.8 250.6-9.2 250.93-12.6 251.38-16.13 251.83-19.65 252.3-22.9 252.78-26.15 253.18-28.7L253.18-28.7Q252.28-28.8 251.43-28.85 250.58-28.9 249.88-28.9L249.88-28.9Q247.78-28.9 246.1-28.5 244.43-28.1 243.28-27.1L243.28-27.1Q243.28-30.25 243.8-32.23 244.33-34.2 245.75-35.1 247.18-36 249.93-36L249.93-36Q251.93-36 254.4-35.68 256.88-35.35 259.43-35 261.98-34.65 264.18-34.65L264.18-34.65Q265.98-34.65 267.4-35 268.83-35.35 269.58-36.25L269.58-36.25Q270.68-35.9 271.28-34.73 271.88-33.55 271.88-32.15L271.88-32.15Q271.88-30.9 271.33-29.73 270.78-28.55 269.58-27.78 268.38-27 266.33-27L266.33-27Q265.38-27 264-27.18 262.63-27.35 261.08-27.55L261.08-27.55Q260.53-24.55 259.95-20.38 259.38-16.2 259-11.4 258.63-6.6 258.53-1.65L258.53-1.65Q257.63-0.7 256.4-0.25 255.18 0.2 254.03 0.2ZM276.78 0.2L276.78 0.2Q274.98 0.2 273.57-1.38 272.18-2.95 272.18-6.3L272.18-6.3Q272.18-8.65 272.8-11 273.43-13.35 274.07-15.3L274.07-15.3Q275.07-18.5 275.82-21.2 276.57-23.9 276.57-26.35L276.57-26.35Q276.57-28.05 276.2-28.7 275.82-29.35 275.23-29.35L275.23-29.35Q274.57-29.35 273.8-28.65 273.03-27.95 272.28-26.5L272.28-26.5 271.93-26.6Q272.03-29.5 273.18-31.6 274.32-33.7 276.07-34.85 277.82-36 279.68-36L279.68-36Q281.78-36 283.28-34.33 284.78-32.65 284.78-28.55L284.78-28.55Q284.78-26.4 284.35-24.05 283.93-21.7 283.38-19.35L283.38-19.35Q285.07-20.05 286.98-20.35 288.88-20.65 291.03-20.65L291.03-20.65 292.32-20.65Q292.98-23.15 293.45-25.58 293.93-28 293.93-30.1L293.93-30.1Q293.93-30.85 293.85-31.5 293.78-32.15 293.68-32.75L293.68-32.75 293.68-33.15Q294.43-34.5 295.85-35.3 297.28-36.1 298.73-36.1L298.73-36.1Q300.38-36.1 301.63-35.02 302.88-33.95 302.88-31.6L302.88-31.6Q302.88-29.85 302.2-27.1 301.53-24.35 300.68-21.45L300.68-21.45Q299.68-17.9 298.85-14.58 298.03-11.25 298.03-8.95L298.03-8.95Q298.03-7.4 298.53-6.5 299.03-5.6 300.13-5.6L300.13-5.6Q301.63-5.6 302.38-7.05L302.38-7.05 302.68-6.9Q302.63-4.8 301.53-3.2 300.43-1.6 298.8-0.7 297.18 0.2 295.48 0.2L295.48 0.2Q293.98 0.2 292.65-0.58 291.32-1.35 290.5-3 289.68-4.65 289.68-7.3L289.68-7.3Q289.68-9.05 290.05-11.13 290.43-13.2 290.93-15.35L290.93-15.35Q288.63-15.5 286.43-15.5L286.43-15.5Q285.32-15.5 284.32-15.45 283.32-15.4 282.43-15.3L282.43-15.3Q281.98-13.3 281.65-11.38 281.32-9.45 281.32-7.65L281.32-7.65Q281.32-6.65 281.45-5.68 281.57-4.7 281.88-3.8L281.88-3.8Q281.07-1.85 279.65-0.83 278.23 0.2 276.78 0.2ZM308.67 0.25L308.67 0.25Q307.27 0.25 306.2-0.93 305.12-2.1 305.12-5.3L305.12-5.3Q305.12-5.85 305.15-6.28 305.17-6.7 305.17-6.9L305.17-6.9Q305.37-8.9 305.75-11.88 306.12-14.85 306.62-18.13 307.12-21.4 307.65-24.45 308.17-27.5 308.62-29.78 309.07-32.05 309.37-32.9L309.37-32.9Q309.92-34.4 311.35-35.27 312.77-36.15 314.27-36.15L314.27-36.15Q315.57-36.15 316.65-35.4 317.72-34.65 318.12-32.85L318.12-32.85Q317.82-31.85 317.17-29.33 316.52-26.8 315.77-23.15 315.02-19.5 314.35-15.1 313.67-10.7 313.27-5.9L313.27-5.9Q313.22-5.05 313.12-3.93 313.02-2.8 312.97-1.65L312.97-1.65Q312.37-1 311.17-0.38 309.97 0.25 308.67 0.25Z" fill="#000000" data-fill-palette-color="primary"></path></g></svg></g></svg></g></svg></g></svg></g><g><svg viewBox="0 0 118.58339565988936 118.58339565988936" height="118.58339565988936" width="118.58339565988936"><g><svg></svg></g><g id="icon-0"><svg viewBox="0 0 118.58339565988936 118.58339565988936" height="118.58339565988936" width="118.58339565988936"><g><path transform="scale(1.18583,1.18583)" d="M30 100c-16.569 0-30-13.431-30-30v-40c0-16.569 13.431-30 30-30h40c16.569 0 30 13.431 30 30v40c0 16.569-13.431 30-30 30z" fill="#111111" fill-rule="nonzero" stroke="none" stroke-width="1" stroke-linecap="butt" stroke-linejoin="miter" stroke-miterlimit="10" stroke-dasharray="" stroke-dashoffset="0" font-family="none" font-weight="none" font-size="none" text-anchor="none" style="mix-blend-mode: normal" data-fill-palette-color="accent"></path></g><g transform="matrix(1,0,0,1,23.716679131977877,30.523017030958492)"><svg viewBox="0 0 71.15003739593361 57.53736159797238" height="57.53736159797238" width="71.15003739593361"><g><svg xmlns="http://www.w3.org/2000/svg" xmlns:xlink="http://www.w3.org/1999/xlink" version="1.1" x="0" y="0" viewBox="4.999648129370422 13.57205104139477 90.00062001684088 72.78138434606981" enable-background="new 0 0 100 100" xml:space="preserve" height="57.53736159797238" width="71.15003739593361" class="icon-dxe-0" data-fill-palette-color="quaternary" id="dxe-0"><g fill="#f9f6ed" data-fill-palette-color="quaternary"><path fill="#f9f6ed" d="M23.81 76.102A6.051 6.051 0 0 0 32.366 84.658 6.05 6.05 0 1 0 23.81 76.102M94.226 14.432L94.14 14.347C92.983 13.189 90.948 13.347 89.596 14.699L66.65 37.643 51.499 22.492 8.754 65.237 6.787 63.27 49.532 20.524A6.05 6.05 0 0 0 40.991 20.539L6.771 54.757A6.054 6.054 0 0 0 6.771 63.315L20.41 76.951A8.407 8.407 0 0 1 35.808 77.05L70.932 41.925 70.926 41.921 93.871 18.976C95.226 17.623 95.383 15.589 94.226 14.432" data-fill-palette-color="quaternary"></path></g></svg></g></svg></g></svg></g></svg></g></svg></g><defs></defs></svg><rect width="395.52" height="89.0247502387792" fill="none" stroke="none" visibility="hidden"></rect></g></svg></g></svg>